<?xml version="1.0" encoding="utf-8"?>
<!-- Generator: Adobe Illustrator 25.4.1, SVG Export Plug-In . SVG Version: 6.00 Build 0)  -->
<svg version="1.1" xmlns="http://www.w3.org/2000/svg" xmlns:xlink="http://www.w3.org/1999/xlink" x="0px" y="0px"
	 viewBox="0 0 1964.6 1086.9" style="enable-background:new 0 0 1964.6 1086.9;" xml:space="preserve">
<style type="text/css">
	.st0{fill:#FFD815;}
	.st1{display:none;}
</style>
<g id="Layer_1">
	<path class="st0" d="M542.1,684.5l696.1,214.9c90.9,28.1,183-39.9,183-135.1V334.5c0-95.2-92.1-163.1-183-135.1L542.1,414.3
		C409.2,455.4,409.2,643.4,542.1,684.5z"/>
	<g>
		<path d="M757.5,492c0-1.9,0-2.9,0-4.8c13.3-1,26.7-2,40-3c0,2.9,0,4.3,0,7.2c1.8,14.4,23.4,17.2,34.6,16.5
			c11.7-0.7,29.2-6,29.1-19c-0.1-34.1-100.2-1.8-100-53.8c0.1-34,41-50.2,67.8-55.9c28.4-6.1,69.6-3.9,69.3,35.8c0,3.1,0,4.6,0,7.7
			c-13.3,1.9-26.7,3.8-40,5.7c0-3.3,0-4.9,0-8.2c-1.5-14.2-20.5-11.9-29.7-10.9c-9.9,1-27.6,8.6-27.1,18.9
			c0.6,12.6,39.3,11.8,50,13.5c24.4,3.9,50.1,14.2,50,43.1c-0.1,37.4-38.2,53.1-70.4,52.8C803.3,537.2,758.2,527.7,757.5,492z"/>
		<path d="M1016.2,500c-20.5,0.8-41,1.7-61.4,2.5c-3.2,10.4-6.3,20.9-9.5,31.3c-13.1,0.1-26.2,0.1-39.2,0.2
			c17.9-59.2,34.8-118.6,50.9-178.3c19-4,38.1-7.9,57.1-11.9c18,62.9,35,126.1,51.3,189.5c-13.2,0.1-26.3,0.1-39.5,0.2
			C1022.6,522.3,1019.4,511.1,1016.2,500z M985.4,391.6c-6.7,25-13.4,50-20.3,74.9c13.6-1.1,27.2-2.2,40.8-3.3
			C999.2,439.4,992.4,415.5,985.4,391.6z"/>
		<path d="M1121.8,363c0,17.9,0,35.8,0,53.7c23.5-2.7,47-5.5,70.5-8.2c0,14.9,0,29.7,0,44.6c-23.5,1.8-47,3.6-70.5,5.4
			c0,24.9,0,49.7,0,74.6c-13.3,0.1-26.7,0.1-40,0.2c0-67.9-0.1-135.7-0.1-203.6c39.4-8.2,78.9-16.5,118.3-24.7c0,15,0,29.9,0,44.9
			C1173.9,354.2,1147.8,358.6,1121.8,363z"/>
		<path d="M1258.1,340c0,17.4,0,34.9,0,52.3c22.6-2.8,45.3-5.6,67.9-8.4c0,16.7,0,33.3,0,50c-22.6,1.9-45.3,3.8-67.9,5.7
			c0,15.2,0,30.4,0,45.6c26.1-1.2,52.1-2.3,78.2-3.5c0,16.8,0,33.6,0,50.4c-39.4,0.2-78.8,0.3-118.2,0.5c0-77.2,0-154.3-0.1-231.5
			c39.4-8.2,78.9-16.5,118.3-24.7c0,16.8,0,33.6,0,50.4C1310.3,331.2,1284.2,335.6,1258.1,340z"/>
	</g>
	<g>
		<g>
			<path d="M845.7,665.5c0,17.8-0.1,35.6-0.1,53.4c-12.1-2.5-24.1-5-36.2-7.5c0-16.8,0.1-33.7,0.1-50.5
				c-16.5-34.2-33.7-68.1-51.9-101.5c13.2,0,26.3,0,39.5,0c10.7,21.1,20.9,42.4,31,63.8c10.7-21.1,20.9-42.4,30.9-63.8
				c13,0,26,0,39,0C881.3,595.2,864,630.6,845.7,665.5z"/>
			<path d="M949,595.1c0,13.1,0,26.3,0,39.4c20.5,1.8,40.9,3.5,61.4,5.3c0,12.7,0,25.4,0,38.1c-20.5-2.6-40.9-5.2-61.4-7.7
				c0,11.5,0,22.9,0,34.4c23.6,3.9,47.2,7.8,70.8,11.7c0,12.8,0,25.7,0,38.5c-35.7-7.3-71.3-14.7-107-22
				c0.1-57.7,0.1-115.5,0.2-173.2c35.6,0,71.3,0,106.9,0c0,12.8,0,25.7,0,38.5C996.1,597,972.6,596.1,949,595.1z"/>
			<path d="M1146.2,737.2c0,14.5,0,29.1,0,43.6c-36.2-7.5-72.4-14.9-108.6-22.4c0-66.3,0.1-132.6,0.1-199c12.1,0,24.1,0,36.2,0
				c0,55.2-0.1,110.5-0.1,165.7C1098,729.2,1122.1,733.2,1146.2,737.2z"/>
			<path d="M1278.4,759c0,16.3,0,32.7,0,49c-36.2-7.5-72.4-14.9-108.6-22.4c0-75.4,0.1-150.8,0.1-226.2c12.1,0,24.1,0,36.2,0
				c0,62.5,0,125-0.1,187.6C1230.1,751.1,1254.3,755,1278.4,759z"/>
			<path d="M1300.2,559.5c12.1,0,24.1,0,36.2,0c0,86.8,0,173.7,0,260.5c-12.1-2.5-24.1-5-36.2-7.5
				C1300.2,728.2,1300.2,643.8,1300.2,559.5z"/>
		</g>
	</g>
	<path d="M733.1,414.1v272.4c-32.6-16.2-65.3-32.4-97.9-48.6c0-57.2,0-114.3,0-171.5C667.9,449,700.5,431.5,733.1,414.1z"/>
	<rect x="554.5" y="488.9" width="58.7" height="116.5"/>
</g>
<g id="Layer_2" class="st1">
</g>
</svg>
