<svg xmlns="http://www.w3.org/2000/svg" viewBox="0 0 944.316 726.907"><g id="Layer_2" data-name="Layer 2"><g id="Layer_1-2" data-name="Layer 1"><path d="M118.15,524.128,763.925,720.755c89.751,27.328,180.391-39.823,180.391-133.642V132.946c0-89.224-86.2-153.085-171.556-127.1L118.15,205.168C-39.383,253.134-39.383,476.162,118.15,524.128Z" fill="#ffd815"/><path d="M230.874,261.932v204.58c0,15.3-13.406,25.275-24.832,18.469L163.871,459.86c-8.949-5.331-14.608-16.282-14.608-28.269V298.569c0-11.651,5.35-22.354,13.916-27.842l42.276-27.082C216.966,236.272,230.874,246.278,230.874,261.932Z"/><path d="M104.483,302.114h0a17.372,17.372,0,0,1,17.372,17.372v81.739A17.372,17.372,0,0,1,104.483,418.6h0a37.524,37.524,0,0,1-37.524-37.524V339.637a37.524,37.524,0,0,1,37.524-37.524Z"/><path d="M267.838,306.328c0-1.934,0-2.9-.009-4.835l40.017-3c0,2.868.007,4.3.012,7.172,1.822,14.428,23.383,17.169,34.623,16.45,11.688-.747,29.186-6.03,29.148-19.019-.1-34.129-100.244-1.764-100.024-53.823.143-34.025,40.989-50.166,67.846-55.895,28.391-6.057,69.575-3.893,69.274,35.79,0,3.089.006,4.633.009,7.722l-40.025,5.658-.011-8.23c-1.532-14.183-20.538-11.859-29.719-10.886-9.883,1.047-27.586,8.622-27.092,18.9.6,12.561,39.254,11.828,50,13.526,24.447,3.864,50.1,14.179,50.021,43.062-.1,37.4-38.221,53.119-70.413,52.842C313.648,351.529,268.506,342.037,267.838,306.328Z"/><path d="M526.577,314.268l-61.446,2.477q-4.731,15.666-9.523,31.313l-39.239.169q26.813-88.78,50.947-178.32l57.078-11.913q26.928,94.424,51.259,189.545l-39.5.171Q531.395,330.979,526.577,314.268ZM495.762,205.937q-10,37.522-20.337,74.95l40.8-3.289Q506.174,241.714,495.762,205.937Z"/><path d="M632.106,177.273q.014,26.847.026,53.693l70.492-8.22q.006,22.3.014,44.6l-70.487,5.379.035,74.569-40.015.173q-.057-101.8-.116-203.6l118.286-24.688.013,44.91Z"/><path d="M768.457,154.308q0,26.16.008,52.319l67.909-8.408q0,25,0,50l-67.9,5.671q0,22.784.008,45.568l78.222-3.492v50.407l-118.226.511-.059-231.468L846.7,90.724v50.4Z"/><path d="M356.02,479.774l-.075,53.446-36.2-7.454.081-50.519c-16.493-34.249-33.7-68.092-51.9-101.466h39.453c10.67,21.114,20.913,42.43,30.953,63.85,10.657-21.114,20.886-42.43,30.912-63.85h38.989C391.631,409.521,374.32,444.873,356.02,479.774Z"/><path d="M459.326,409.409l-.039,39.448,61.414,5.255-.03,38.126-61.419-7.75-.034,34.358,70.767,11.7q-.015,19.251-.029,38.5L422.979,547.022q.1-86.621.193-173.241H530.1q-.013,19.251-.029,38.5Z"/><path d="M656.568,551.47l-.018,43.641L547.938,572.749q.071-99.483.14-198.968h36.189q-.051,82.86-.1,165.72Z"/><path d="M788.746,573.321l-.006,49.007L680.128,599.966q.042-113.092.083-226.185H716.4l-.053,187.571Z"/><path d="M810.519,373.781H846.7V634.262l-36.2-7.454Q810.509,500.3,810.519,373.781Z"/></g></g></svg>